{"title":"Dalaw dvdrip","uid":6157037,"size":850529932,"categoryP":"video","categoryS":"movies","magnet":"?xt=urn:btih:55333d4bcd954a398108c3e1a7d57ce5997a7dbd&amp;dn=Dalaw+dvdrip&amp;tr=udp%3A%2F%2Ftracker.openbittorrent.com%3A80&amp;tr=udp%3A%2F%2Fopen.demonii.com%3A1337&amp;tr=udp%3A%2F%2Ftracker.coppersurfer.tk%3A6969&amp;tr=udp%3A%2F%2Fexodus.desync.com%3A6969","seeders":0,"leechers":1,"uploader":"sidneyivan","files":-1,"time":1297078003,"description":" &lt;a href=&quot;http://www.imdb.com/title/tt1783258/&quot; rel=&quot;nofollow&quot; target=&quot;_NEW&quot;&gt;http://www.imdb.com/title/tt1783258/&lt;/a&gt;\n\nComplete name : Dalaw (2010) DVDRip XviD English Softsub [sea dragon]\nFormat : AVI\nFormat/Info : Audio Video Interleave\nFile size : 813 MiB\nDuration : 1h 39mn\nOverall bit rate : 1 137 Kbps\nWriting application : VirtualDubMod 1.5.10.3 | www.virtualdub-fr.org || (build 2550/release)\nWriting library : VirtualDubMod build 2550/release\n\nVideo\nID : 0\nFormat : MPEG-4 Visual\nFormat profile : Advanced Simple@L5\nFormat settings, BVOP : Yes\nFormat settings, QPel : Yes\nFormat settings, GMC : 3 warppoints\nFormat settings, Matrix : Default (H.263)\nMuxing mode : Packed bitstream\nCodec ID : XVID\nCodec ID/Hint : XviD\nDuration : 1h 39mn\nBit rate : 998 Kbps\nWidth : 704 pixels\nHeight : 368 pixels\nDisplay aspect ratio : 1.913\nFrame rate : 29.970 fps\nColor space : YUV\nChroma subsampling : 4:2:0\nBit depth : 8 bits\nScan type : Progressive\nBits/(Pixel*Frame) : 0.128\nStream size : 713 MiB (88%)\nWriting library : XviD 1.2.1 (UTC 2008-12-04)\n\nAudio\nID : 1\nFormat : MPEG Audio\nFormat version : Version 1\nFormat profile : Layer 3\nMode : Joint stereo\nMode extension : MS Stereo\nCodec ID : 55\nCodec ID/Hint : MP3\nDuration : 1h 39mn\nBit rate mode : Constant\nBit rate : 128 Kbps\nChannel(s) : 2 channels\nSampling rate : 48.0 KHz\nStream size : 91.5 MiB (11%)\nAlignment : Split accross interleaves\nInterleave, duration : 33 ms (1.00 video frame)\nInterleave, preload duration : 500 ms\n","torrent":{"xt":"urn:btih:55333d4bcd954a398108c3e1a7d57ce5997a7dbd","amp;dn":"Dalaw+dvdrip","amp;tr":["udp%3A%2F%2Ftracker.openbittorrent.com%3A80","udp%3A%2F%2Fopen.demonii.com%3A1337","udp%3A%2F%2Ftracker.coppersurfer.tk%3A6969","udp%3A%2F%2Fexodus.desync.com%3A6969"],"infoHash":"55333d4bcd954a398108c3e1a7d57ce5997a7dbd","infoHashBuffer":{"type":"Buffer","data":[85,51,61,75,205,149,74,57,129,8,195,225,167,213,124,229,153,122,125,189]},"announce":[],"urlList":[]}}